<svg width="58" height="58" viewBox="0 0 58 58" fill="none" xmlns="http://www.w3.org/2000/svg">
<path fill-rule="evenodd" clip-rule="evenodd" d="M45.9167 58H12.0833C5.41092 58 0 52.5891 0 45.9167V12.0833C0 5.41092 5.41092 0 12.0833 0H45.9167C52.5915 0 58 5.41092 58 12.0833V45.9167C58 52.5891 52.5915 58 45.9167 58ZM39.2853 45.559C39.8049 45.9287 40.4719 46.0206 41.0688 45.7934C41.6633 45.5687 42.1032 45.0588 42.2361 44.4401C43.6353 37.8619 47.0332 21.2063 48.3068 15.2226C48.401 14.7707 48.2415 14.3018 47.8887 13.9998C47.5334 13.7001 47.0404 13.6131 46.603 13.775C39.8484 16.2738 19.0433 24.0797 10.5391 27.2286C10.0002 27.4268 9.64975 27.9463 9.66667 28.5167C9.686 29.0846 10.0703 29.58 10.6213 29.7468C14.4348 30.885 19.4421 32.4728 19.4421 32.4728C19.4421 32.4728 21.779 39.5391 22.9994 43.1303C23.1517 43.5822 23.5069 43.9374 23.9709 44.0583C24.4373 44.1791 24.9303 44.0534 25.2783 43.7248C27.2383 41.876 30.2663 39.0171 30.2663 39.0171C30.2663 39.0171 36.0204 43.2366 39.2853 45.559V45.559ZM21.547 31.581L24.2513 40.5033L24.853 34.8532C24.853 34.8532 35.3027 25.4282 41.2622 20.0535C41.4362 19.8964 41.4603 19.633 41.3153 19.4469C41.1703 19.2608 40.9069 19.2173 40.7087 19.343C33.8043 23.7534 21.547 31.581 21.547 31.581V31.581Z" fill="url(#paint0_linear)"/>
<defs>
<linearGradient id="paint0_linear" x1="29" y1="0" x2="29" y2="58" gradientUnits="userSpaceOnUse">
<stop stop-color="#39A7D2"/>
<stop offset="1" stop-color="#39C1B4"/>
</linearGradient>
</defs>
</svg>
