<svg width="799" height="690" viewBox="0 0 799 690" fill="none" xmlns="http://www.w3.org/2000/svg">
<g id="me 1">
<g clip-path="url(#clip0)">
<g id="me 1_2">
<g id="undraw dev productivity umsq (1) 1">
<path id="Vector" d="M516.92 635.583C516.92 635.583 512.16 637.213 504.42 639.523C487.31 644.653 455.65 653.163 428.82 654.863C405.72 656.343 386.2 652.783 382.63 637.713C381.1 631.233 383.27 625.903 388 621.523C402.12 608.433 439 603.743 468.25 602.133C476.51 601.683 484.15 601.473 490.51 601.393C501.31 601.253 508.39 601.473 508.39 601.473L508.56 602.133L516.92 635.583Z" fill="#A0616A"/>
<path id="Vector 2" d="M436.99 683.533C418.61 706.293 342.73 658.613 316.19 640.833C310.41 636.963 306.97 634.513 306.97 634.513L331.25 602.133L338.94 591.883C338.94 591.883 345.82 595.533 355.99 601.473C356.36 601.693 356.73 601.913 357.11 602.133C365.88 607.283 376.89 614.013 388 621.523C403.33 631.893 418.83 643.723 428.82 654.863C438.59 665.753 443.08 675.983 436.99 683.533Z" fill="#A0616A"/>
<g id="me">
<path id="Vector 3" d="M434.672 202.899C475.283 202.554 507.926 169.353 507.582 128.742C507.237 88.1299 474.036 55.4871 433.425 55.8315C392.813 56.1759 360.17 89.377 360.515 129.989C360.859 170.6 394.06 203.243 434.672 202.899Z" fill="#DFB288"/>
<path id="Vector 4" d="M379.477 166.597C379.477 166.597 394.216 270.919 373.002 282.822C351.787 294.726 499.929 294.535 499.929 294.535C499.929 294.535 466.124 204.231 480.809 176.396L379.477 166.597Z" fill="#DFB288"/>
<path id="Vector 5" d="M608.101 294.146L596.257 350.349L571.214 469.255L570.49 475.762L562.138 551.085L556.582 601.124L552.857 634.737C528.584 647.473 510.988 656.273 510.988 656.273C510.988 656.273 509.404 648.666 506.871 638.937C489.805 644.212 458.218 652.99 431.404 654.917C441.266 665.724 445.842 675.916 439.817 683.517C421.63 706.432 345.349 659.397 318.659 641.843C318.077 646.105 317.879 650.411 318.068 654.709L297.626 639.261L299.331 603.306L302.206 542.469L305.819 466.176C304.448 462.922 303.294 459.581 302.364 456.175C295.956 434.108 288.032 390.004 281.928 353.014C277.016 323.245 273.302 298.085 272.517 292.732C272.411 292.033 272.358 291.673 272.358 291.673L384.363 241.041C392.509 259.503 429.865 264.756 429.865 264.756C460.756 262.364 484.847 245.86 484.847 245.86L608.101 294.146Z" fill="white"/>
<path id="Vector 6" d="M372.285 60.3279L358.49 54.9402C358.49 54.9402 386.969 23.0467 426.99 25.4597L415.635 13.1704C415.635 13.1704 443.04 1.92876 468.283 30.6141C481.553 45.6934 496.908 63.4204 506.557 83.4544L521.281 83.3296L515.251 96.913L536.874 110.262L514.777 108.019C516.155 115.418 516.421 122.981 515.566 130.458C514.683 137.938 510.928 144.782 505.094 149.545C505.094 149.545 487.743 114.396 487.696 108.891L487.813 122.652C487.813 122.652 473.959 110.384 473.889 102.127L466.471 111.824L462.593 96.7184L416.475 112.248L423.87 99.7993L395.157 104.171L406.278 88.939C406.278 88.939 373.932 107.104 372.811 122.251C371.689 137.399 362.299 151.822 362.299 151.822C362.299 151.822 336.213 81.2761 372.285 60.3279Z" fill="#2F2E41"/>
<path id="Vector 7" d="M690.215 551.369C682.794 559.552 664.338 571.939 641.951 585.369C633.623 590.36 624.757 595.506 615.71 600.623C594.122 612.836 571.514 624.948 552.857 634.737C528.584 647.473 510.988 656.273 510.988 656.273C510.988 656.273 509.403 648.666 506.871 638.937C503.48 625.915 498.397 609.088 493.184 601.662C493.002 601.403 492.82 601.165 492.638 600.926C491.121 598.969 489.601 597.832 488.112 597.844L562.138 551.085L594.127 530.873L570.489 475.761L540.842 406.63L557.908 350.674L575.062 294.426L608.101 294.146C608.101 294.146 619.243 317.932 633.514 351.113C635.647 356.075 637.851 361.246 640.096 366.587C669.469 436.341 706.176 533.783 690.215 551.369Z" fill="#AAAFB0"/>
<path id="Vector 8" d="M358.123 602.147C355.41 602.159 352.702 602.403 350.029 602.875C327.074 607.02 320.47 627.887 318.659 641.843C318.077 646.105 317.879 650.411 318.068 654.708L297.626 639.261L290.178 633.634C272.316 627.575 256.353 616.68 242.483 603.787C230.449 592.403 219.634 579.796 210.213 566.17C200.831 552.74 192.448 538.639 185.134 523.981C183.094 519.89 181.977 515.401 181.864 510.831C181.751 506.261 182.644 501.722 184.48 497.535L209.154 441.274L245.218 359.045C245.471 357.093 245.752 355.184 246.059 353.318C252.995 311.458 272.367 292.733 272.367 292.733L287.286 292.606L297.778 352.879L310.813 427.762L302.364 456.174L282.839 521.792L302.205 542.469L358.123 602.147Z" fill="#AAAFB0"/>
<path id="Vector 9" d="M372.877 426.753L385.631 441.633C390.37 440.73 395.319 439.668 400.416 438.476L396.752 426.753L405.71 437.203C459.707 423.922 526.637 398.102 526.637 398.102C526.637 398.102 454.379 403.4 400.428 391.613C376.558 386.398 351.998 398.231 342.202 420.615C336.508 433.626 337.403 444.898 357.596 444.898C364.419 444.782 371.223 444.142 377.949 442.984L372.877 426.753Z" fill="#38D39F"/>
</g>
<path id="Vector 10" d="M663.65 671.333V677.403C663.654 679.069 663.345 680.721 662.74 682.273C662.472 682.965 662.147 683.634 661.77 684.273C660.578 686.273 658.887 687.93 656.862 689.08C654.838 690.23 652.549 690.834 650.22 690.833H203.67C201.342 690.834 199.053 690.23 197.028 689.08C195.003 687.93 193.312 686.273 192.12 684.273C191.743 683.634 191.419 682.965 191.15 682.273C190.546 680.721 190.237 679.069 190.24 677.403V671.333C190.24 669.569 190.587 667.823 191.262 666.193C191.936 664.563 192.926 663.083 194.173 661.835C195.42 660.588 196.901 659.599 198.53 658.924C200.16 658.249 201.906 657.902 203.67 657.903H229.41V655.073C229.41 654.999 229.425 654.926 229.453 654.858C229.481 654.79 229.522 654.729 229.574 654.677C229.626 654.625 229.688 654.583 229.756 654.555C229.824 654.527 229.897 654.513 229.97 654.513H243.4C243.474 654.513 243.547 654.527 243.615 654.555C243.683 654.583 243.745 654.625 243.797 654.677C243.849 654.729 243.89 654.79 243.918 654.858C243.946 654.926 243.96 654.999 243.96 655.073V657.903H252.35V655.073C252.35 654.999 252.365 654.926 252.393 654.858C252.421 654.79 252.462 654.729 252.514 654.677C252.566 654.625 252.628 654.583 252.696 654.555C252.764 654.527 252.837 654.513 252.91 654.513H266.34C266.414 654.513 266.487 654.527 266.555 654.555C266.623 654.583 266.684 654.625 266.736 654.677C266.789 654.729 266.83 654.79 266.858 654.858C266.886 654.926 266.9 654.999 266.9 655.073V657.903H275.3V655.073C275.3 654.999 275.315 654.926 275.343 654.858C275.371 654.79 275.412 654.729 275.464 654.677C275.516 654.625 275.578 654.583 275.646 654.555C275.714 654.527 275.787 654.513 275.86 654.513H289.29C289.364 654.513 289.437 654.527 289.505 654.555C289.573 654.583 289.634 654.625 289.686 654.677C289.739 654.729 289.78 654.79 289.808 654.858C289.836 654.926 289.85 654.999 289.85 655.073V657.903H298.24V655.073C298.24 654.999 298.255 654.926 298.283 654.858C298.311 654.79 298.352 654.729 298.404 654.677C298.456 654.625 298.518 654.583 298.586 654.555C298.654 654.527 298.727 654.513 298.8 654.513H312.23C312.304 654.513 312.377 654.527 312.445 654.555C312.513 654.583 312.574 654.625 312.626 654.677C312.678 654.729 312.72 654.79 312.748 654.858C312.776 654.926 312.79 654.999 312.79 655.073V657.903H321.18V655.073C321.18 654.999 321.194 654.926 321.223 654.858C321.251 654.79 321.292 654.729 321.344 654.677C321.396 654.625 321.458 654.583 321.526 654.555C321.594 654.527 321.667 654.513 321.74 654.513H335.17C335.244 654.513 335.317 654.527 335.385 654.555C335.453 654.583 335.514 654.625 335.566 654.677C335.618 654.729 335.66 654.79 335.688 654.858C335.716 654.926 335.73 654.999 335.73 655.073V657.903H344.13V655.073C344.13 654.999 344.145 654.926 344.173 654.858C344.201 654.79 344.242 654.729 344.294 654.677C344.346 654.625 344.408 654.583 344.476 654.555C344.544 654.527 344.617 654.513 344.69 654.513H358.12C358.194 654.513 358.267 654.527 358.335 654.555C358.403 654.583 358.464 654.625 358.516 654.677C358.569 654.729 358.61 654.79 358.638 654.858C358.666 654.926 358.68 654.999 358.68 655.073V657.903H367.07V655.073C367.07 654.999 367.085 654.926 367.113 654.858C367.141 654.79 367.182 654.729 367.234 654.677C367.286 654.625 367.348 654.583 367.416 654.555C367.484 654.527 367.557 654.513 367.63 654.513H472.83C472.904 654.513 472.977 654.527 473.045 654.555C473.113 654.583 473.174 654.625 473.227 654.677C473.279 654.729 473.32 654.79 473.348 654.858C473.376 654.926 473.39 654.999 473.39 655.073V657.903H481.79V655.073C481.79 654.999 481.804 654.926 481.833 654.858C481.861 654.79 481.902 654.729 481.954 654.677C482.006 654.625 482.068 654.583 482.136 654.555C482.204 654.527 482.277 654.513 482.35 654.513H495.78C495.928 654.514 496.07 654.574 496.175 654.679C496.279 654.783 496.339 654.925 496.34 655.073V657.903H504.73V655.073C504.73 654.999 504.745 654.926 504.773 654.858C504.801 654.79 504.842 654.729 504.894 654.677C504.946 654.625 505.008 654.583 505.076 654.555C505.144 654.527 505.217 654.513 505.29 654.513H518.72C518.794 654.513 518.867 654.527 518.935 654.555C519.003 654.583 519.065 654.625 519.117 654.677C519.169 654.729 519.21 654.79 519.238 654.858C519.266 654.926 519.28 654.999 519.28 655.073V657.903H527.67V655.073C527.67 654.999 527.685 654.926 527.713 654.858C527.741 654.79 527.782 654.729 527.834 654.677C527.886 654.625 527.948 654.583 528.016 654.555C528.084 654.527 528.157 654.513 528.23 654.513H541.66C541.734 654.513 541.807 654.527 541.875 654.555C541.943 654.583 542.005 654.625 542.057 654.677C542.109 654.729 542.15 654.79 542.178 654.858C542.206 654.926 542.22 654.999 542.22 655.073V657.903H550.62V655.073C550.62 654.999 550.635 654.926 550.663 654.858C550.691 654.79 550.732 654.729 550.784 654.677C550.836 654.625 550.898 654.583 550.966 654.555C551.034 654.527 551.107 654.513 551.18 654.513H564.61C564.757 654.515 564.898 654.575 565.001 654.68C565.104 654.784 565.161 654.926 565.16 655.073V657.903H573.56V655.073C573.56 654.999 573.575 654.926 573.603 654.858C573.631 654.79 573.672 654.729 573.724 654.677C573.776 654.625 573.838 654.583 573.906 654.555C573.974 654.527 574.047 654.513 574.12 654.513H587.55C587.624 654.513 587.697 654.527 587.765 654.555C587.833 654.583 587.895 654.625 587.947 654.677C587.999 654.729 588.04 654.79 588.068 654.858C588.096 654.926 588.11 654.999 588.11 655.073V657.903H596.5V655.073C596.5 654.999 596.515 654.926 596.543 654.858C596.571 654.79 596.612 654.729 596.664 654.677C596.716 654.625 596.778 654.583 596.846 654.555C596.914 654.527 596.987 654.513 597.06 654.513H610.49C610.564 654.513 610.637 654.527 610.705 654.555C610.773 654.583 610.835 654.625 610.887 654.677C610.939 654.729 610.98 654.79 611.008 654.858C611.036 654.926 611.05 654.999 611.05 655.073V657.903H650.22C651.984 657.902 653.731 658.249 655.36 658.924C656.99 659.599 658.471 660.588 659.718 661.835C660.965 663.083 661.954 664.563 662.629 666.193C663.304 667.823 663.651 669.569 663.65 671.333Z" fill="#3F3D56"/>
<path id="Vector 11" d="M793.5 682.273H60.5V684.273H793.5V682.273Z" fill="#3F3D56"/>
<path id="Vector 12" d="M627.694 415.704H461.251V412.273H385.78V415.704H218.651C215.665 415.704 212.801 416.89 210.69 419.001C208.578 421.113 207.392 423.976 207.392 426.962V654.874C207.392 657.86 208.578 660.723 210.69 662.835C212.801 664.946 215.665 666.132 218.651 666.132H627.694C630.68 666.132 633.544 664.946 635.655 662.835C637.767 660.723 638.953 657.86 638.953 654.874V426.962C638.953 425.484 638.662 424.02 638.096 422.654C637.53 421.288 636.701 420.047 635.655 419.001C634.61 417.956 633.369 417.127 632.003 416.561C630.637 415.995 629.173 415.704 627.694 415.704Z" fill="#3F3D56"/>
<path id="Vector 13" d="M423.5 520.273C437.307 520.273 448.5 509.08 448.5 495.273C448.5 481.466 437.307 470.273 423.5 470.273C409.693 470.273 398.5 481.466 398.5 495.273C398.5 509.08 409.693 520.273 423.5 520.273Z" stroke="#D0CDE1" stroke-width="2" stroke-miterlimit="10"/>
<path id="Vector 14" d="M415.5 529.273C429.307 529.273 440.5 518.08 440.5 504.273C440.5 490.466 429.307 479.273 415.5 479.273C401.693 479.273 390.5 490.466 390.5 504.273C390.5 518.08 401.693 529.273 415.5 529.273Z" fill="#D0CDE1"/>
<path id="Vector 15" d="M108.446 672.17H80.4463V700.17H108.446V672.17Z" fill="#D0CDE1"/>
<path id="Vector 16" d="M91.4502 650.17V684.17H125.45V650.17H91.4502ZM123.97 682.69H92.9202V651.65H123.97V682.69Z" fill="#3F3D56"/>
<path id="Vector 17" d="M756.446 672.17H728.446V700.17H756.446V672.17Z" fill="#D0CDE1"/>
<path id="Vector 18" d="M739.45 650.17V684.17H773.45V650.17H739.45ZM771.97 682.69H740.92V651.65H771.97V682.69Z" fill="#3F3D56"/>
<path id="Vector 19" d="M94.5802 241.06C138.399 241.06 173.921 205.539 173.921 161.72C173.921 117.902 138.399 82.3793 94.5802 82.3793C50.7617 82.3793 15.2397 117.902 15.2397 161.72C15.2397 205.539 50.7617 241.06 94.5802 241.06Z" fill="#38D39F"/>
<path id="Vector 20" d="M122.229 67.4366C115.045 66.523 107.774 66.523 100.59 67.4366C84.586 69.538 69.5203 76.1866 57.181 86.5933C44.8417 97 35.7467 110.728 30.9754 126.149C28.8053 133.176 27.5764 140.461 27.3208 147.811C27.2848 148.833 27.2607 149.867 27.2607 150.901C27.283 173.211 36.1559 194.602 51.932 210.378C67.7082 226.154 89.0989 235.027 111.41 235.05C113.201 235.05 114.992 234.989 116.759 234.881C120.907 234.621 125.03 234.05 129.093 233.174C148.495 229.002 165.798 218.108 177.947 202.415C190.095 186.723 196.308 167.242 195.487 147.414C194.665 127.585 186.863 108.685 173.459 94.0506C160.054 79.4165 141.909 69.9902 122.229 67.4366ZM137.748 228.294H137.736C130.959 230.606 123.905 232.009 116.759 232.465C114.992 232.585 113.201 232.645 111.41 232.645C89.7377 232.619 68.961 223.998 53.6367 208.674C38.3123 193.349 29.6914 172.573 29.6649 150.901C29.6649 149.867 29.689 148.833 29.725 147.811C30.5514 126.691 39.5156 106.708 54.7411 92.0476C69.9666 77.3868 90.2731 69.1838 111.41 69.1557C130.776 69.1568 149.513 76.0332 164.283 88.5598C179.052 101.087 188.895 118.45 192.057 137.557C195.219 156.663 191.496 176.272 181.55 192.889C171.604 209.506 156.081 222.053 137.748 228.294Z" fill="#3F3D56"/>
<path id="Vector 21" d="M112.612 73.9644H110.208V90.7942H112.612V73.9644Z" fill="#3F3D56"/>
<path id="Vector 22" d="M57.8578 95.6485L56.1577 97.3486L68.0582 109.249L69.7582 107.549L57.8578 95.6485Z" fill="#3F3D56"/>
<path id="Vector 23" d="M34.4736 149.698V152.103H51.3034V149.698H34.4736Z" fill="#3F3D56"/>
<path id="Vector 24" d="M56.1578 204.453L57.8579 206.153L69.7584 194.253L68.0583 192.553L56.1578 204.453Z" fill="#3F3D56"/>
<path id="Vector 25" d="M153.062 107.549L154.762 109.249L166.662 97.3485L164.962 95.6484L153.062 107.549Z" fill="#3F3D56"/>
<path id="Vector 26" d="M171.516 149.698V152.103H188.346V149.698H171.516Z" fill="#3F3D56"/>
<path id="Vector 27" d="M154.762 192.552L153.062 194.252L164.962 206.153L166.662 204.453L154.762 192.552Z" fill="#3F3D56"/>
<path id="Vector 28" d="M112.612 211.007H110.208V227.837H112.612V211.007Z" fill="#3F3D56"/>
<path id="Vector 29" d="M115.016 146.092C113.976 145.312 112.711 144.89 111.41 144.89C110.11 144.89 108.844 145.312 107.804 146.092C107.091 146.633 106.505 147.322 106.085 148.112C105.552 149.128 105.322 150.276 105.421 151.42C105.52 152.563 105.944 153.654 106.644 154.564C107.343 155.474 108.288 156.165 109.368 156.555C110.447 156.944 111.616 157.017 112.735 156.764C113.855 156.511 114.878 155.943 115.685 155.126C116.492 154.31 117.048 153.28 117.288 152.157C117.528 151.035 117.441 149.867 117.039 148.793C116.636 147.718 115.934 146.781 115.016 146.092Z" fill="#3F3D56"/>
<path id="Vector 30" d="M122.229 46.3154H100.591V67.9537H122.229V46.3154Z" fill="#3F3D56"/>
<path id="Vector 31" d="M111.41 49.9216C127.344 49.9216 140.261 45.3468 140.261 39.7035C140.261 34.0602 127.344 29.4854 111.41 29.4854C95.4757 29.4854 82.5586 34.0602 82.5586 39.7035C82.5586 45.3468 95.4757 49.9216 111.41 49.9216Z" fill="#3F3D56"/>
<path id="clock arrow" d="M115 102.947H108V151.947H115V102.947Z" fill="#3F3D56"/>
<path id="Vector 32" d="M226 231.387H0V233.791H226V231.387Z" fill="#3F3D56"/>
<g id="plant left">
<path id="Vector 33" d="M150.594 610.701C151.527 642.651 132.858 654.36 109.43 655.044C108.886 655.06 108.344 655.07 107.805 655.073C106.719 655.082 105.643 655.064 104.577 655.019C83.3891 654.14 66.6172 642.892 65.7495 613.179C64.8515 582.429 103.018 542.476 105.882 539.521L105.887 539.518C105.996 539.405 106.052 539.349 106.052 539.349C106.052 539.349 149.661 578.754 150.594 610.701Z" fill="#D0CDE1"/>
<path id="Vector 34" d="M107.744 650.202L122.626 628.071L107.774 652.583L107.805 655.073C106.719 655.082 105.643 655.064 104.577 655.019L105.315 623.007L105.295 622.76L105.322 622.713L105.393 619.688L89.0952 596.025L105.374 617.424L105.432 618.063L105.989 593.877L91.9122 569.344L106.029 589.628L105.882 539.521V539.354L105.887 539.518L106.821 579.009L119.651 562.968L106.863 582.411L107.143 604.045L118.949 582.931L107.187 607.226L107.343 619.255L124.512 589.844L107.395 623.452L107.744 650.202Z" fill="#3F3D56"/>
</g>
<g id="plant right">
<path id="Vector 35" d="M798.594 610.701C799.527 642.651 780.858 654.36 757.43 655.044C756.886 655.06 756.344 655.07 755.805 655.073C754.719 655.082 753.643 655.064 752.577 655.019C731.389 654.14 714.617 642.892 713.749 613.179C712.851 582.429 751.018 542.476 753.882 539.521L753.887 539.518C753.996 539.405 754.052 539.349 754.052 539.349C754.052 539.349 797.661 578.754 798.594 610.701Z" fill="#D0CDE1"/>
<path id="Vector 36" d="M755.744 650.202L770.626 628.071L755.774 652.583L755.805 655.073C754.719 655.082 753.643 655.064 752.577 655.019L753.315 623.007L753.295 622.76L753.323 622.713L753.393 619.688L737.095 596.025L753.374 617.424L753.432 618.063L753.989 593.877L739.912 569.344L754.029 589.628L753.882 539.521V539.354L753.887 539.518L754.821 579.009L767.651 562.968L754.864 582.411L755.143 604.045L766.949 582.931L755.187 607.226L755.343 619.255L772.512 589.844L755.395 623.452L755.744 650.202Z" fill="#3F3D56"/>
</g>
</g>
</g>
</g>
</g>
<defs>
<clipPath id="clip0">
<rect width="799" height="690" fill="white"/>
</clipPath>
</defs>
</svg>
